<!-- <svg xmlns="http://www.w3.org/2000/svg" width="15" height="15" viewBox="0 0 15 15">
  <path id="ico_arrow" d="M7.5,0A7.5,7.5,0,1,0,15,7.5,7.5,7.5,0,0,0,7.5,0m3.283,8.112-4.348,2.51a.707.707,0,0,1-1.06-.612V4.99a.707.707,0,0,1,1.06-.612l4.348,2.51a.707.707,0,0,1,0,1.224" fill="#666"/>
</svg> -->

<svg xmlns="http://www.w3.org/2000/svg" width="15" height="15" viewBox="0 0 24 24" fill="none">
<path id="ico_arrow" d="M13 15L16 12M16 12L13 9M16 12H8M21 12C21 16.9706 16.9706 21 12 21C7.02944 21 3 16.9706 3 12C3 7.02944 7.02944 3 12 3C16.9706 3 21 7.02944 21 12Z" stroke="#000000" stroke-width="2" stroke-linecap="round" stroke-linejoin="round"/>
</svg>
