<svg xmlns="http://www.w3.org/2000/svg" viewBox="0 0 20 20"><path fill="#b0b0b0" d="M0 9.999a10 10 0 0 1 10-10 10 10 0 0 1 10 10 10 10 0 0 1-10 10 10 10 0 0 1-10-10Zm9.393-4.7a1.36 1.36 0 0 0-.832.5l-3.953 5.052-.057.07a1.381 1.381 0 0 0-.279 1 1.345 1.345 0 0 0 .51.9l3.619 2.834a1.33 1.33 0 0 0 1 .275 1.319 1.319 0 0 0 .9-.51l4.014-5.122a1.333 1.333 0 0 0 .283-.93l-.24-3.418a.414.414 0 0 1 0-.07 1.385 1.385 0 0 0-.512-.9 1.351 1.351 0 0 0-1-.275h-.02a.227.227 0 0 0-.039.007Zm1.613 3.3a1.2 1.2 0 0 1-.2-1.679 1.2 1.2 0 0 1 1.678-.2 1.2 1.2 0 0 1 .205 1.679 1.19 1.19 0 0 1-.943.458 1.2 1.2 0 0 1-.74-.258Zm1.775-3.885.039-.007-.047.009Z"/></svg>