<svg xmlns="http://www.w3.org/2000/svg" width="17" height="15" viewBox="0 0 17 15">
  <path id="ico_cart" d="M9.356,13.262A1.819,1.819,0,1,1,11.174,15,1.782,1.782,0,0,1,9.356,13.262Zm1.039,0a.78.78,0,1,0,.778-.745A.763.763,0,0,0,10.4,13.262Zm-8.276,0a1.782,1.782,0,0,1,1.817-1.739,1.74,1.74,0,1,1,0,3.477A1.781,1.781,0,0,1,2.12,13.262Zm1.039,0a.779.779,0,1,0,.778-.745A.762.762,0,0,0,3.159,13.262Zm-.081-2.8a.647.647,0,0,1-.614-.419L.035,3.272a.6.6,0,0,1,.085-.562.659.659,0,0,1,.528-.26H7.767a.621.621,0,1,1,0,1.241H1.558L3.542,9.217h7L13,.458A.646.646,0,0,1,13.631,0h2.721A.635.635,0,0,1,17,.62a.636.636,0,0,1-.649.621H14.127L11.661,10a.647.647,0,0,1-.627.459Z" transform="translate(0)" fill="#333"/>
</svg>
